<svg xmlns="http://www.w3.org/2000/svg" viewBox="0 0 280 48" fill="none" role="img" aria-label="The Study Architect">
  <rect width="48" height="48" rx="12" fill="#eef3fc"/>
  <rect x="1" y="1" width="46" height="46" rx="11" stroke="#c7d5ee" stroke-width="1"/>
  <ellipse cx="14" cy="30" rx="5" ry="3.5" fill="#fde68a"/>
  <path d="M9 30C9 22 12 16 18 14C20 22 19 28 14 30C12 31 10 31 9 30Z" fill="#fffbeb" stroke="#f59e0b" stroke-width="0.75" stroke-linejoin="round"/>
  <path d="M11 18C13 20 14 24 13 28" stroke="#fbbf24" stroke-width="0.6" stroke-linecap="round" opacity="0.7"/>
  <path d="M15 16C16 19 16 24 14 28" stroke="#fbbf24" stroke-width="0.6" stroke-linecap="round" opacity="0.5"/>
  <ellipse cx="34" cy="29" rx="4.5" ry="3" fill="#fde68a"/>
  <path d="M38 29C38 22 35 17 30 15C28 22 29 27 33 29C35 30 37 30 38 29Z" fill="#fef9c3" stroke="#f59e0b" stroke-width="0.75" stroke-linejoin="round"/>
  <path d="M24 36L14 33V22L24 25V36Z" fill="#2563eb"/>
  <path d="M24 36L14 33V22L24 25V36Z" fill="url(#bookLeftShade)" opacity="0.25"/>
  <path d="M24 36L34 33V22L24 25V36Z" fill="#3b82f6"/>
  <path d="M24 36L34 33V22L24 25V36Z" fill="url(#bookRightShade)" opacity="0.15"/>
  <path d="M22.5 25V36L24 36.5L25.5 36V25L24 24.5L22.5 25Z" fill="#1e3a8a"/>
  <path d="M15 23.5L23 26V34.5L15 32V23.5Z" fill="#ffffff"/>
  <path d="M17 26L21 27" stroke="#94a3b8" stroke-width="0.5" stroke-linecap="round"/>
  <path d="M17 28.5L21 29.5" stroke="#94a3b8" stroke-width="0.5" stroke-linecap="round"/>
  <path d="M17 31L20 31.8" stroke="#94a3b8" stroke-width="0.5" stroke-linecap="round"/>
  <path d="M33 23.5L25 26V34.5L33 32V23.5Z" fill="#f8fafc"/>
  <path d="M31 26L27 27" stroke="#94a3b8" stroke-width="0.5" stroke-linecap="round"/>
  <path d="M31 28.5L27 29.5" stroke="#94a3b8" stroke-width="0.5" stroke-linecap="round"/>
  <path d="M31 31L28 31.8" stroke="#94a3b8" stroke-width="0.5" stroke-linecap="round"/>
  <circle cx="24" cy="30" r="1.2" fill="#0d9488" opacity="0.6"/>
  <path d="M24 10L36 16L24 22L12 16L24 10Z" fill="#1e3a8a"/>
  <path d="M24 10L36 16L24 22L12 16L24 10Z" fill="url(#capShade)" opacity="0.2"/>
  <path d="M24 10.5L33 15.5L24 20.5L15 15.5L24 10.5Z" fill="#2563eb" opacity="0.35"/>
  <path d="M14 16.5C14 16.5 18 19 24 19C30 19 34 16.5 34 16.5V18.5C34 18.5 30 21 24 21C18 21 14 18.5 14 18.5V16.5Z" fill="#1e40af"/>
  <path d="M33 16L35 22" stroke="#f59e0b" stroke-width="1.2" stroke-linecap="round"/>
  <circle cx="35.5" cy="22.5" r="1.5" fill="#f59e0b"/>
  <path d="M35 23.5L34.5 25.5" stroke="#d97706" stroke-width="0.8" stroke-linecap="round"/>
  <circle cx="12" cy="16" r="1" fill="#7c3aed" opacity="0.5"/>
  <text x="60" y="31" fill="#0f172a" font-family="system-ui, -apple-system, Segoe UI, sans-serif" font-size="18" font-weight="600" letter-spacing="-0.02em">The Study Architect</text>
  <defs>
    <linearGradient id="bookLeftShade" x1="14" y1="22" x2="24" y2="36" gradientUnits="userSpaceOnUse">
      <stop stop-color="#1e3a8a"/>
      <stop offset="1" stop-color="#2563eb" stop-opacity="0"/>
    </linearGradient>
    <linearGradient id="bookRightShade" x1="34" y1="22" x2="24" y2="36" gradientUnits="userSpaceOnUse">
      <stop stop-color="#1e3a8a"/>
      <stop offset="1" stop-color="#3b82f6" stop-opacity="0"/>
    </linearGradient>
    <linearGradient id="capShade" x1="24" y1="10" x2="24" y2="22" gradientUnits="userSpaceOnUse">
      <stop stop-color="#000000" stop-opacity="0.3"/>
      <stop offset="1" stop-color="#000000" stop-opacity="0"/>
    </linearGradient>
  </defs>
</svg>
